<mxfile host="app.diagrams.net" modified="2024-04-14T13:53:14.810Z" agent="Mozilla/5.0 (X11; Linux x86_64) AppleWebKit/537.36 (KHTML, like Gecko) Chrome/118.0.0.0 Safari/537.36" etag="CwHCIEpAailsvSQCZ6Ey" version="24.2.5" type="google">
  <diagram id="C5RBs43oDa-KdzZeNtuy" name="Page-1">
    <mxGraphModel grid="1" page="1" gridSize="10" guides="1" tooltips="1" connect="1" arrows="1" fold="1" pageScale="1" pageWidth="827" pageHeight="1169" math="0" shadow="0">
      <root>
        <mxCell id="WIyWlLk6GJQsqaUBKTNV-0" />
        <mxCell id="WIyWlLk6GJQsqaUBKTNV-1" parent="WIyWlLk6GJQsqaUBKTNV-0" />
        <mxCell id="CNy2mxxjlXtY3Llzxs05-3" style="edgeStyle=orthogonalEdgeStyle;rounded=0;orthogonalLoop=1;jettySize=auto;html=1;exitX=0.5;exitY=1;exitDx=0;exitDy=0;entryX=0.5;entryY=0;entryDx=0;entryDy=0;" edge="1" parent="WIyWlLk6GJQsqaUBKTNV-1" source="c0VZ9kgmCvr3VRAPLb1D-1" target="c0VZ9kgmCvr3VRAPLb1D-79">
          <mxGeometry relative="1" as="geometry" />
        </mxCell>
        <mxCell id="c0VZ9kgmCvr3VRAPLb1D-1" value="&lt;&lt;odlr:asset&gt;&#xa;DataProduct" style="swimlane;fontStyle=1;align=center;verticalAlign=top;childLayout=stackLayout;horizontal=1;startSize=40;horizontalStack=0;resizeParent=1;resizeLast=0;collapsible=1;marginBottom=0;rounded=0;shadow=0;strokeWidth=1;" vertex="1" parent="WIyWlLk6GJQsqaUBKTNV-1">
          <mxGeometry x="580" y="190" width="210" height="140" as="geometry">
            <mxRectangle x="130" y="380" width="160" height="26" as="alternateBounds" />
          </mxGeometry>
        </mxCell>
        <mxCell id="c0VZ9kgmCvr3VRAPLb1D-3" value="dcat:identifier" style="text;align=left;verticalAlign=top;spacingLeft=4;spacingRight=4;overflow=hidden;rotatable=0;points=[[0,0.5],[1,0.5]];portConstraint=eastwest;rounded=0;shadow=0;html=0;" vertex="1" parent="c0VZ9kgmCvr3VRAPLb1D-1">
          <mxGeometry y="40" width="210" height="30" as="geometry" />
        </mxCell>
        <mxCell id="c0VZ9kgmCvr3VRAPLb1D-4" value="" style="line;html=1;strokeWidth=1;align=left;verticalAlign=middle;spacingTop=-1;spacingLeft=3;spacingRight=3;rotatable=0;labelPosition=right;points=[];portConstraint=eastwest;" vertex="1" parent="c0VZ9kgmCvr3VRAPLb1D-1">
          <mxGeometry y="70" width="210" height="8" as="geometry" />
        </mxCell>
        <UserObject label="dcat:&lt;http://www.w3.org/ns/dcat#&gt;" link="dcat:&#xa;&lt;http://www.w3.org/ns/dcat#&gt;" id="c0VZ9kgmCvr3VRAPLb1D-9">
          <mxCell style="text;whiteSpace=wrap;fontStyle=1" vertex="1" parent="WIyWlLk6GJQsqaUBKTNV-1">
            <mxGeometry x="20" y="50" width="260" height="50" as="geometry" />
          </mxCell>
        </UserObject>
        <UserObject label="Prefixes" link="dcat:&#xa;&lt;http://www.w3.org/ns/dcat#&gt;" id="c0VZ9kgmCvr3VRAPLb1D-10">
          <mxCell style="text;whiteSpace=wrap;fontStyle=1;fontSize=15;" vertex="1" parent="WIyWlLk6GJQsqaUBKTNV-1">
            <mxGeometry x="20" y="10" width="260" height="50" as="geometry" />
          </mxCell>
        </UserObject>
        <mxCell id="c0VZ9kgmCvr3VRAPLb1D-11" value="DataContract" style="swimlane;fontStyle=1;align=center;verticalAlign=top;childLayout=stackLayout;horizontal=1;startSize=30;horizontalStack=0;resizeParent=1;resizeLast=0;collapsible=1;marginBottom=0;rounded=0;shadow=0;strokeWidth=1;" vertex="1" parent="WIyWlLk6GJQsqaUBKTNV-1">
          <mxGeometry x="244" y="160" width="156" height="100" as="geometry">
            <mxRectangle x="130" y="380" width="160" height="26" as="alternateBounds" />
          </mxGeometry>
        </mxCell>
        <mxCell id="c0VZ9kgmCvr3VRAPLb1D-47" value="dcat:identifier" style="text;align=left;verticalAlign=top;spacingLeft=4;spacingRight=4;overflow=hidden;rotatable=0;points=[[0,0.5],[1,0.5]];portConstraint=eastwest;rounded=0;shadow=0;html=0;" vertex="1" parent="c0VZ9kgmCvr3VRAPLb1D-11">
          <mxGeometry y="30" width="156" height="20" as="geometry" />
        </mxCell>
        <mxCell id="c0VZ9kgmCvr3VRAPLb1D-14" value="" style="line;html=1;strokeWidth=1;align=left;verticalAlign=middle;spacingTop=-1;spacingLeft=3;spacingRight=3;rotatable=0;labelPosition=right;points=[];portConstraint=eastwest;" vertex="1" parent="c0VZ9kgmCvr3VRAPLb1D-11">
          <mxGeometry y="50" width="156" height="50" as="geometry" />
        </mxCell>
        <UserObject label="odlr:&lt;http://www.w3.org/ns/odrl/2/&gt;" link="&lt;http://www.w3.org/ns/odrl/2/&gt;" id="c0VZ9kgmCvr3VRAPLb1D-16">
          <mxCell style="text;whiteSpace=wrap;fontStyle=1" vertex="1" parent="WIyWlLk6GJQsqaUBKTNV-1">
            <mxGeometry x="20" y="80" width="220" height="40" as="geometry" />
          </mxCell>
        </UserObject>
        <mxCell id="c0VZ9kgmCvr3VRAPLb1D-17" value="" style="endArrow=classic;html=1;rounded=0;entryX=1;entryY=0.75;entryDx=0;entryDy=0;" edge="1" parent="WIyWlLk6GJQsqaUBKTNV-1" target="c0VZ9kgmCvr3VRAPLb1D-11">
          <mxGeometry width="50" height="50" relative="1" as="geometry">
            <mxPoint x="570" y="250" as="sourcePoint" />
            <mxPoint x="530" y="295" as="targetPoint" />
          </mxGeometry>
        </mxCell>
        <mxCell id="c0VZ9kgmCvr3VRAPLb1D-18" value="dct:conformsTo" style="edgeLabel;html=1;align=center;verticalAlign=middle;resizable=0;points=[];" connectable="0" vertex="1" parent="c0VZ9kgmCvr3VRAPLb1D-17">
          <mxGeometry x="0.0246" y="-3" relative="1" as="geometry">
            <mxPoint x="4" y="16" as="offset" />
          </mxGeometry>
        </mxCell>
        <mxCell id="c0VZ9kgmCvr3VRAPLb1D-19" value="odlr:Policy" style="swimlane;fontStyle=1;align=center;verticalAlign=top;childLayout=stackLayout;horizontal=1;startSize=30;horizontalStack=0;resizeParent=1;resizeLast=0;collapsible=1;marginBottom=0;rounded=0;shadow=0;strokeWidth=1;" vertex="1" parent="WIyWlLk6GJQsqaUBKTNV-1">
          <mxGeometry x="190" y="310" width="220" height="100" as="geometry">
            <mxRectangle x="130" y="380" width="160" height="26" as="alternateBounds" />
          </mxGeometry>
        </mxCell>
        <mxCell id="c0VZ9kgmCvr3VRAPLb1D-21" value="" style="line;html=1;strokeWidth=1;align=left;verticalAlign=middle;spacingTop=-1;spacingLeft=3;spacingRight=3;rotatable=0;labelPosition=right;points=[];portConstraint=eastwest;" vertex="1" parent="c0VZ9kgmCvr3VRAPLb1D-19">
          <mxGeometry y="30" width="220" height="40" as="geometry" />
        </mxCell>
        <mxCell id="c0VZ9kgmCvr3VRAPLb1D-22" value="" style="endArrow=classic;html=1;rounded=0;exitX=0.5;exitY=1;exitDx=0;exitDy=0;entryX=0.5;entryY=0;entryDx=0;entryDy=0;" edge="1" parent="WIyWlLk6GJQsqaUBKTNV-1" source="c0VZ9kgmCvr3VRAPLb1D-11" target="c0VZ9kgmCvr3VRAPLb1D-19">
          <mxGeometry width="50" height="50" relative="1" as="geometry">
            <mxPoint x="550" y="365" as="sourcePoint" />
            <mxPoint x="410" y="295" as="targetPoint" />
          </mxGeometry>
        </mxCell>
        <mxCell id="c0VZ9kgmCvr3VRAPLb1D-23" value="hm:hasDC" style="edgeLabel;html=1;align=center;verticalAlign=middle;resizable=0;points=[];" connectable="0" vertex="1" parent="c0VZ9kgmCvr3VRAPLb1D-22">
          <mxGeometry x="0.0246" y="-3" relative="1" as="geometry">
            <mxPoint x="-33" y="-3" as="offset" />
          </mxGeometry>
        </mxCell>
        <UserObject label="odlr:https://www.w3.org/TR/vocab-dqv/#dqv:QualityPolicy" link="&lt;http://www.w3.org/ns/odrl/2/&gt;" id="c0VZ9kgmCvr3VRAPLb1D-27">
          <mxCell style="text;whiteSpace=wrap;fontStyle=1" vertex="1" parent="WIyWlLk6GJQsqaUBKTNV-1">
            <mxGeometry x="20" y="110" width="380" height="40" as="geometry" />
          </mxCell>
        </UserObject>
        <mxCell id="c0VZ9kgmCvr3VRAPLb1D-33" value="" style="endArrow=classic;html=1;rounded=0;exitX=0.5;exitY=1;exitDx=0;exitDy=0;entryX=0.5;entryY=0;entryDx=0;entryDy=0;" edge="1" parent="WIyWlLk6GJQsqaUBKTNV-1" source="c0VZ9kgmCvr3VRAPLb1D-19" target="c0VZ9kgmCvr3VRAPLb1D-61">
          <mxGeometry width="50" height="50" relative="1" as="geometry">
            <mxPoint x="260" y="560" as="sourcePoint" />
            <mxPoint x="308" y="430" as="targetPoint" />
          </mxGeometry>
        </mxCell>
        <mxCell id="c0VZ9kgmCvr3VRAPLb1D-34" value="owl:subClassOf" style="edgeLabel;html=1;align=center;verticalAlign=middle;resizable=0;points=[];" connectable="0" vertex="1" parent="c0VZ9kgmCvr3VRAPLb1D-33">
          <mxGeometry x="-0.2133" y="2" relative="1" as="geometry">
            <mxPoint x="-52" y="8" as="offset" />
          </mxGeometry>
        </mxCell>
        <UserObject label="odlr:https://w3id.org/dpv/" link="&lt;http://www.w3.org/ns/odrl/2/&gt;" id="c0VZ9kgmCvr3VRAPLb1D-37">
          <mxCell style="text;whiteSpace=wrap;fontStyle=1" vertex="1" parent="WIyWlLk6GJQsqaUBKTNV-1">
            <mxGeometry x="20" y="140" width="380" height="40" as="geometry" />
          </mxCell>
        </UserObject>
        <mxCell id="c0VZ9kgmCvr3VRAPLb1D-44" value="" style="endArrow=classic;html=1;rounded=0;entryX=0;entryY=0.5;entryDx=0;entryDy=0;exitX=1;exitY=0.5;exitDx=0;exitDy=0;" edge="1" parent="WIyWlLk6GJQsqaUBKTNV-1" source="c0VZ9kgmCvr3VRAPLb1D-11" target="c0VZ9kgmCvr3VRAPLb1D-3">
          <mxGeometry width="50" height="50" relative="1" as="geometry">
            <mxPoint x="520" y="260" as="sourcePoint" />
            <mxPoint x="620" y="255" as="targetPoint" />
          </mxGeometry>
        </mxCell>
        <mxCell id="c0VZ9kgmCvr3VRAPLb1D-46" value="odlr:target" style="edgeLabel;html=1;align=center;verticalAlign=middle;resizable=0;points=[];" connectable="0" vertex="1" parent="c0VZ9kgmCvr3VRAPLb1D-44">
          <mxGeometry x="0.0584" y="-1" relative="1" as="geometry">
            <mxPoint x="-3" y="-18" as="offset" />
          </mxGeometry>
        </mxCell>
        <mxCell id="CNy2mxxjlXtY3Llzxs05-7" style="edgeStyle=orthogonalEdgeStyle;rounded=0;orthogonalLoop=1;jettySize=auto;html=1;exitX=0.5;exitY=1;exitDx=0;exitDy=0;entryX=0;entryY=0.5;entryDx=0;entryDy=0;" edge="1" parent="WIyWlLk6GJQsqaUBKTNV-1" source="c0VZ9kgmCvr3VRAPLb1D-61" target="CNy2mxxjlXtY3Llzxs05-5">
          <mxGeometry relative="1" as="geometry" />
        </mxCell>
        <mxCell id="c0VZ9kgmCvr3VRAPLb1D-61" value="odlr:Constraint" style="swimlane;fontStyle=1;align=center;verticalAlign=top;childLayout=stackLayout;horizontal=1;startSize=30;horizontalStack=0;resizeParent=1;resizeLast=0;collapsible=1;marginBottom=0;rounded=0;shadow=0;strokeWidth=1;" vertex="1" parent="WIyWlLk6GJQsqaUBKTNV-1">
          <mxGeometry x="198" y="460" width="220" height="100" as="geometry">
            <mxRectangle x="130" y="380" width="160" height="26" as="alternateBounds" />
          </mxGeometry>
        </mxCell>
        <mxCell id="c0VZ9kgmCvr3VRAPLb1D-62" value="" style="line;html=1;strokeWidth=1;align=left;verticalAlign=middle;spacingTop=-1;spacingLeft=3;spacingRight=3;rotatable=0;labelPosition=right;points=[];portConstraint=eastwest;" vertex="1" parent="c0VZ9kgmCvr3VRAPLb1D-61">
          <mxGeometry y="30" width="220" height="30" as="geometry" />
        </mxCell>
        <mxCell id="c0VZ9kgmCvr3VRAPLb1D-79" value="prof:Profile" style="swimlane;fontStyle=1;align=center;verticalAlign=top;childLayout=stackLayout;horizontal=1;startSize=30;horizontalStack=0;resizeParent=1;resizeLast=0;collapsible=1;marginBottom=0;rounded=0;shadow=0;strokeWidth=1;" vertex="1" parent="WIyWlLk6GJQsqaUBKTNV-1">
          <mxGeometry x="580" y="370" width="210" height="100" as="geometry">
            <mxRectangle x="130" y="380" width="160" height="26" as="alternateBounds" />
          </mxGeometry>
        </mxCell>
        <mxCell id="c0VZ9kgmCvr3VRAPLb1D-83" value="" style="line;html=1;strokeWidth=1;align=left;verticalAlign=middle;spacingTop=-1;spacingLeft=3;spacingRight=3;rotatable=0;labelPosition=right;points=[];portConstraint=eastwest;" vertex="1" parent="c0VZ9kgmCvr3VRAPLb1D-79">
          <mxGeometry y="30" width="210" height="8" as="geometry" />
        </mxCell>
        <mxCell id="c0VZ9kgmCvr3VRAPLb1D-82" value="dcat:format" style="text;align=left;verticalAlign=top;spacingLeft=4;spacingRight=4;overflow=hidden;rotatable=0;points=[[0,0.5],[1,0.5]];portConstraint=eastwest;" vertex="1" parent="c0VZ9kgmCvr3VRAPLb1D-79">
          <mxGeometry y="38" width="210" height="30" as="geometry" />
        </mxCell>
        <mxCell id="CNy2mxxjlXtY3Llzxs05-8" style="edgeStyle=orthogonalEdgeStyle;rounded=0;orthogonalLoop=1;jettySize=auto;html=1;entryX=0.5;entryY=1;entryDx=0;entryDy=0;" edge="1" parent="WIyWlLk6GJQsqaUBKTNV-1" source="CNy2mxxjlXtY3Llzxs05-5" target="c0VZ9kgmCvr3VRAPLb1D-79">
          <mxGeometry relative="1" as="geometry">
            <mxPoint x="670" y="440" as="targetPoint" />
          </mxGeometry>
        </mxCell>
        <mxCell id="CNy2mxxjlXtY3Llzxs05-5" value="&lt;&lt;prov:SoftwareAgent&gt;&gt;&#xa;PolicyChecker" style="swimlane;fontStyle=1;align=center;verticalAlign=top;childLayout=stackLayout;horizontal=1;startSize=50;horizontalStack=0;resizeParent=1;resizeLast=0;collapsible=1;marginBottom=0;rounded=0;shadow=0;strokeWidth=1;" vertex="1" parent="WIyWlLk6GJQsqaUBKTNV-1">
          <mxGeometry x="560" y="550" width="220" height="100" as="geometry">
            <mxRectangle x="130" y="380" width="160" height="26" as="alternateBounds" />
          </mxGeometry>
        </mxCell>
        <mxCell id="CNy2mxxjlXtY3Llzxs05-6" value="" style="line;html=1;strokeWidth=1;align=left;verticalAlign=middle;spacingTop=-1;spacingLeft=3;spacingRight=3;rotatable=0;labelPosition=right;points=[];portConstraint=eastwest;" vertex="1" parent="CNy2mxxjlXtY3Llzxs05-5">
          <mxGeometry y="50" width="220" height="30" as="geometry" />
        </mxCell>
      </root>
    </mxGraphModel>
  </diagram>
</mxfile>
